<svg xmlns="http://www.w3.org/2000/svg" viewBox="0 0 800 500" width="800" height="500">
  <rect width="800" height="500" fill="#081A36"/>
  <path d="M0 380 Q 200 360 400 380 T 800 380 L 800 500 L 0 500 Z" fill="#0F2C59"/>
  <path d="M0 410 Q 200 395 400 410 T 800 410 L 800 500 L 0 500 Z" fill="#1E3A8A" opacity="0.7"/>
  <polygon points="120,380 680,380 620,440 180,440" fill="#1E293B" stroke="#334155" stroke-width="2"/>
  <rect x="180" y="260" width="80" height="35" fill="#2563EB" rx="2"/>
  <rect x="265" y="260" width="80" height="35" fill="#059669" rx="2"/>
  <rect x="350" y="260" width="80" height="35" fill="#D97706" rx="2"/>
  <rect x="435" y="260" width="80" height="35" fill="#DC2626" rx="2"/>
  <rect x="220" y="220" width="80" height="35" fill="#0284C7" rx="2"/>
  <rect x="305" y="220" width="80" height="35" fill="#7C3AED" rx="2"/>
  <rect x="390" y="220" width="80" height="35" fill="#10B981" rx="2"/>
  <rect x="260" y="180" width="80" height="35" fill="#E11D48" rx="2"/>
  <rect x="345" y="180" width="80" height="35" fill="#2563EB" rx="2"/>
  <rect x="540" y="200" width="60" height="180" fill="#F8FAFC"/>
  <rect x="555" y="160" width="30" height="40" fill="#CBD5E1"/>
  <text x="400" y="100" text-anchor="middle" fill="#38BDF8" font-family="sans-serif" font-size="20" font-weight="bold">TRANS-PACIFIC OCEAN CARRIER OPERATIONS</text>
</svg>